<svg width="168px" height="164px" viewBox="0 0 168 164" version="1.1" xmlns="http://www.w3.org/2000/svg" xmlns:xlink="http://www.w3.org/1999/xlink">
    <!-- Generator: Sketch 44.1 (41455) - http://www.bohemiancoding.com/sketch -->
    <desc>Created with Sketch.</desc>
    <defs></defs>
    <g id="Page-1" stroke="none" stroke-width="1" fill="none" fill-rule="evenodd">
        <g id="Correct" transform="translate(-102.000000, -116.000000)" fill="#FFFFFF">
            <path d="M266.298211,186.99544 L254.061109,181.077301 C247.047373,177.710653 243.680896,169.615 246.245896,162.267301 L250.77466,149.422294 C251.496075,147.485206 251.121995,145.307692 249.792744,143.717905 C248.463492,142.128135 246.379413,141.379993 244.342119,141.747472 L231.002751,144.225604 L231.009437,144.225604 C223.281092,145.66173 215.726312,141.012685 213.528107,133.471243 L209.733959,120.506023 C209.159501,118.528921 207.563114,117.005824 205.559165,116.518303 C203.555216,116.030782 201.444563,116.651888 200.021672,118.148138 L190.70354,128.067506 C185.292929,133.805411 176.402297,134.486675 170.18354,129.643921 L159.509378,121.227472 C157.879542,119.958327 155.688554,119.664429 153.778142,120.452637 C151.86773,121.240844 150.525209,122.990961 150.257936,125.041593 L148.547936,138.481167 C147.525937,146.269704 140.772737,152.007609 132.91751,151.767012 L119.357723,151.359553 C117.287082,151.279388 115.329816,152.328114 114.241059,154.098289 C113.152268,155.87515 113.105516,158.092678 114.107465,159.909553 L120.586819,171.879553 L120.593505,171.879553 C124.294116,178.786414 122.176589,187.376428 115.683924,191.765143 L104.515572,199.393282 C102.812259,200.555552 101.857036,202.53934 102.017435,204.596812 C102.171068,206.660782 103.420165,208.477657 105.290546,209.359504 L117.527646,215.277643 C124.507866,218.677636 127.854507,226.746613 125.342859,234.087643 L120.814095,246.93265 C120.092681,248.869738 120.46676,251.047252 121.796012,252.637039 C123.125263,254.226809 125.209343,254.974951 127.246637,254.607472 L140.586005,252.12934 L140.579319,252.12934 C148.307664,250.693213 155.862444,255.342259 158.060649,262.883701 L161.854797,275.848917 C162.429254,277.826019 164.025642,279.349116 166.029591,279.836637 C168.03354,280.324158 170.144193,279.703044 171.567084,278.206802 L180.885216,268.287434 C186.295827,262.549533 195.186459,261.868269 201.405216,266.711019 L212.079378,275.127468 C213.709213,276.396613 215.900202,276.690511 217.810614,275.902304 C219.721026,275.114096 221.063547,273.36398 221.33082,271.313348 L223.04082,257.873777 C224.062818,250.08524 230.816019,244.347335 238.671246,244.587932 L252.231033,244.995391 C254.301672,245.075539 256.258938,244.02683 257.347695,242.256655 C258.436486,240.479794 258.483237,238.262266 257.481297,236.445391 L251.001936,224.475391 L250.99525,224.475391 C247.294639,217.56853 249.412166,208.978516 255.904831,204.589801 L267.106699,196.961662 C268.810013,195.792723 269.758567,193.802095 269.5915,191.744794 C269.424433,189.687493 268.168728,187.870618 266.298382,186.995611 L266.298211,186.99544 Z M192.186811,168.76684 C195.546619,167.2973 199.454311,167.998674 202.092841,170.543701 C204.731371,173.088694 205.573033,176.969539 204.223672,180.376201 C202.881048,183.782863 199.614709,186.040576 195.954283,186.100768 C192.287188,186.154205 188.953885,183.996613 187.504489,180.630136 C185.534056,176.061187 187.631405,170.757622 192.186982,168.767011 L192.186811,168.76684 Z M155.355121,194.32963 C153.912308,190.962982 154.640392,187.06213 157.198672,184.443778 C159.756951,181.825426 163.637848,181.003771 167.031172,182.36647 C170.431165,183.729135 172.67554,187.002109 172.715554,190.662706 C172.755636,194.323132 170.591392,197.642926 167.224915,199.085824 C162.635959,201.042919 157.325554,198.918825 155.355121,194.329972 L155.355121,194.32963 Z M198.291511,227.43352 C192.660481,229.844962 186.368194,230.218939 180.490411,228.495584 C174.612286,226.772246 169.5223,223.058297 166.075624,217.995158 C165.380936,216.926408 165.193914,215.597225 165.567959,214.374746 C165.948708,213.152369 166.850459,212.163716 168.026084,211.669526 L207.817784,194.669732 C208.993409,194.162067 210.329432,194.19548 211.47821,194.769921 C212.620439,195.344378 213.448643,196.399773 213.735923,197.648877 C215.011737,203.633877 214.170109,209.872641 211.357997,215.309757 C208.539233,220.740375 203.92343,225.028713 198.292571,227.433315 L198.291511,227.43352 Z" id="Page-1"></path>
        </g>
    </g>
</svg>