<svg width="162px" height="162px" viewBox="0 0 162 162" version="1.1" xmlns="http://www.w3.org/2000/svg" xmlns:xlink="http://www.w3.org/1999/xlink">
    <!-- Generator: Sketch 44.1 (41455) - http://www.bohemiancoding.com/sketch -->
    <desc>Created with Sketch.</desc>
    <defs></defs>
    <g id="Page-1" stroke="none" stroke-width="1" fill="none" fill-rule="evenodd">
        <g id="Out-of-Time" transform="translate(-107.000000, -119.000000)" fill="#FFFFFF">
            <path d="M187.55,119 C142.98258,119 107,154.98258 107,199.55 C107,244.11742 142.98258,280.1 187.55,280.1 C232.11742,280.1 268.1,244.11742 268.1,199.55 C268.1,154.98258 232.11742,119 187.55,119 Z M214.4,159.275 C221.741864,159.275 227.825,165.358136 227.825,172.7 C227.825,180.041864 221.741864,186.125 214.4,186.125 C207.058136,186.125 200.975,180.041864 200.975,172.7 C200.975,165.358136 207.058136,159.275 214.4,159.275 Z M160.7,159.275 C168.041864,159.275 174.125,165.358136 174.125,172.7 C174.125,180.041864 168.041864,186.125 160.7,186.125 C153.358136,186.125 147.275,180.041864 147.275,172.7 C147.275,165.358136 153.358136,159.275 160.7,159.275 Z M225.32258,254.145 C222.281012,254.145 219.596012,251.998432 219.05758,248.956864 C216.554444,233.741864 203.304148,222.289444 187.55,222.289444 C171.795852,222.289444 158.55379,233.924444 156.04242,248.956864 C155.504024,251.998432 152.818988,254.145 149.77742,254.145 C145.840852,254.145 142.799284,250.565 143.51242,246.803136 C147.09242,225.679346 165.53121,209.395716 187.72363,209.395716 C209.91605,209.395716 228.35484,225.505716 231.93484,246.803136 C232.298425,250.565 229.256821,254.145 225.320253,254.145 L225.32258,254.145 Z" id="Page-1"></path>
        </g>
    </g>
</svg>