<svg width="161px" height="161px" viewBox="0 0 161 161" version="1.1" xmlns="http://www.w3.org/2000/svg" xmlns:xlink="http://www.w3.org/1999/xlink">
    <!-- Generator: Sketch 44.1 (41455) - http://www.bohemiancoding.com/sketch -->
    <desc>Created with Sketch.</desc>
    <defs></defs>
    <g id="Page-1" stroke="none" stroke-width="1" fill="none" fill-rule="evenodd">
        <g id="Wrong" transform="translate(-108.000000, -119.000000)" fill="#FFFFFF">
            <g id="Page-1" transform="translate(108.000000, 119.000000)">
                <path d="M124.92909,69.04807 C127.539464,71.670599 127.539464,75.909407 124.92909,78.531936 C123.627027,79.840061 121.91808,80.500483 120.209133,80.500483 C118.500186,80.500483 116.791239,79.8401254 115.489177,78.531936 L106.856783,69.859349 L98.218139,78.531936 C96.9160765,79.840061 95.2071295,80.500483 93.4981825,80.500483 C91.7892355,80.500483 90.0802886,79.8401254 88.7782261,78.531936 C86.1678512,75.909407 86.1678512,71.670599 88.7782261,69.04807 L97.4106199,60.375483 L88.7782261,51.702896 C86.1678512,49.080367 86.1678512,44.841559 88.7782261,42.21903 C91.3886009,39.590222 95.6077642,39.590222 98.218139,42.21903 L106.856783,50.891617 L115.489177,42.21903 C118.099551,39.590222 122.318715,39.590222 124.92909,42.21903 C127.539464,44.841559 127.539464,49.080367 124.92909,51.702896 L116.296696,60.375483 L124.92909,69.04807 Z M120.209133,107.33548 L113.529753,107.33548 L113.529753,114.039681 C113.529753,125.139826 104.540474,134.164681 93.4980223,134.164681 C82.4555709,134.164681 73.4662917,125.139826 73.4662917,114.039681 L73.4662917,107.33548 L40.0822108,107.33548 C36.3888405,107.33548 33.4028306,104.329288 33.4028306,100.625 C33.4028306,96.920712 36.3888405,93.91452 40.0822108,93.91452 L120.209133,93.91452 C123.902503,93.91452 126.888513,96.920712 126.888513,100.625 C126.888513,104.329288 123.902503,107.33548 120.209133,107.33548 Z M35.3627351,51.70193 C32.7523602,49.079401 32.7523602,44.840593 35.3627351,42.218064 C37.97311,39.589256 42.1922732,39.589256 44.8026481,42.218064 L53.4350419,50.890651 L62.0674358,42.218064 C64.6778106,39.589256 68.9032238,39.589256 71.5135986,42.218064 C74.1239735,44.840593 74.1239735,49.079401 71.5135986,51.70193 L62.8749549,60.374517 L71.5135986,69.047104 C74.1239735,71.669633 74.1239735,75.908441 71.5135986,78.53097 C70.2115361,79.839095 68.5025891,80.499517 66.7936421,80.499517 C65.0784452,80.499517 63.3694983,79.8391594 62.0674358,78.53097 L53.4350419,69.858383 L44.8026481,78.53097 C43.5005856,79.839095 41.7916386,80.499517 40.0826916,80.499517 C38.3737446,80.499517 36.6647976,79.8391594 35.3627351,78.53097 C32.7523602,75.908441 32.7523602,71.669633 35.3627351,69.047104 L43.995129,60.374517 L35.3627351,51.70193 Z M80.145672,0 C35.963687,0 0.0187507094,36.1123 0.0187507094,80.5 C0.0187507094,124.8877 35.963687,161.000003 80.145672,161.000003 C124.327657,161.000003 160.272594,124.8877 160.272594,80.5 C160.272594,36.1123 124.327657,0 80.145672,0 Z" id="Fill-1"></path>
                <path d="M86.825533,114.03952 C86.825533,117.737529 89.8115429,120.75 93.4986633,120.75 C97.1857838,120.75 100.178044,117.737529 100.178044,114.03952 L100.178044,107.335319 L86.8256932,107.335319 L86.825533,114.03952 Z" id="Fill-2"></path>
            </g>
        </g>
    </g>
</svg>